<?xml version="1.0" encoding="utf-8"?>
<!-- Generator: Adobe Illustrator 19.0.0, SVG Export Plug-In . SVG Version: 6.00 Build 0)  -->
<svg version="1.1" id="图层_1" xmlns="http://www.w3.org/2000/svg" xmlns:xlink="http://www.w3.org/1999/xlink" x="0px" y="0px"
	 viewBox="0 0 36 36" style="enable-background:new 0 0 36 36;" xml:space="preserve">
<style type="text/css">
	.st0{fill-rule:evenodd;clip-rule:evenodd;fill:#FF6600;}
</style>
<path id="XMLID_2_" class="st0" d="M5.3,30.7c-7-7-7-18.4,0-25.5c7-7,18.4-7,25.5,0c7,7,7,18.4,0,25.5C23.7,37.8,12.3,37.8,5.3,30.7
	z M29.6,6.4c-6.4-6.4-16.8-6.4-23.1,0c-6.4,6.4-6.4,16.8,0,23.1c6.4,6.4,16.8,6.4,23.1,0C35.9,23.2,35.9,12.8,29.6,6.4z M12.6,26.5
	l-3.1-3.1l5.4-5.4l-5.4-5.4l3.1-3.1l5.4,5.4l5.4-5.4l3.1,3.1L21.1,18l5.4,5.4l-3.1,3.1L18,21.1L12.6,26.5z"/>
</svg>
