<?xml version="1.0" encoding="utf-8"?>
<!-- Generator: Adobe Illustrator 19.0.0, SVG Export Plug-In . SVG Version: 6.00 Build 0)  -->
<svg version="1.1" id="图层_1" xmlns="http://www.w3.org/2000/svg" xmlns:xlink="http://www.w3.org/1999/xlink" x="0px" y="0px"
	 viewBox="0 0 50 50" style="enable-background:new 0 0 50 50;" xml:space="preserve">
<style type="text/css">
	.st0{fill-rule:evenodd;clip-rule:evenodd;fill:#FF6600;}
</style>
<path id="XMLID_2_" class="st0" d="M43.4,4H27c0,0,0-1.5,0-2c0-1.1-0.9-2-2-2s-2,0.9-2,2c0,1.1,0,2,0,2H6.6c-2.3,0-4.1,1.8-4.1,4v4
	c0,2.2,1.8,4,4.1,4V46c0,2.2,1.8,4,4.1,4h28.6c2.3,0,4.1-1.8,4.1-4V16.1c2.3,0,4.1-1.8,4.1-4v-4C47.5,5.8,45.7,4,43.4,4z M39.3,44
	c0,1.1-0.9,2-2,2H12.7c-1.1,0-2-0.9-2-2V16.1h4.1v23.8c0,1.1,0.9,2,2,2c1.1,0,2-0.9,2-2l0-23.8H23v23.8c0,1.1,0.9,2,2,2s2-0.9,2-2
	l0-23.8h4.1l0,23.8c0,1.1,0.9,2,2,2s2-0.9,2-2V16.1h4.1V44z M43.4,11.1c0,0.6-0.5,1-1,1H7.6c-0.6,0-1-0.5-1-1v-2c0-0.6,0.5-1,1-1
	h34.8c0.6,0,1,0.5,1,1V11.1z"/>
</svg>
