<?xml version="1.0" encoding="utf-8"?>
<!-- Generator: Adobe Illustrator 19.0.0, SVG Export Plug-In . SVG Version: 6.00 Build 0)  -->
<svg version="1.1" id="图层_1" xmlns="http://www.w3.org/2000/svg" xmlns:xlink="http://www.w3.org/1999/xlink" x="0px" y="0px"
	 viewBox="0 0 32 32" style="enable-background:new 0 0 32 32;" xml:space="preserve">
<style type="text/css">
	.st0{fill-rule:evenodd;clip-rule:evenodd;fill:#666666;}
</style>
<g id="XMLID_2_">
	<g id="XMLID_55_">
		<path id="XMLID_56_" class="st0" d="M28.1,1c-0.4-0.6-1.1-1-1.9-1H5.8C5,0,4.3,0.4,3.9,1L0,6.9v22.9C0,31,1,32,2.3,32h27.4
			c1.3,0,2.3-1,2.3-2.3V6.9L28.1,1z M5.5,1.6l21.1,0l3.5,5.9H1.8L5.5,1.6z M1.8,30.2v-21h28.7l0.1,21H1.8z M17.2,12.7h-3.2v8.9h-3.2
			l4.7,4.7l4.7-4.7h-3.2V12.7z"/>
	</g>
</g>
</svg>
